# xmcd CD database file
#
# Track frame offsets:
#	150
#	12061
#	27184
#	39061
#	47557
#	62575
#	72365
#	81886
#	94222
#	108740
#	121414
#	132890
#	140691
#	151640
#	163262
#	173764
#
# Disc length: 2548 seconds
#
# Revision: 1
# Processed by: cddbd v1.5.2PL0 Copyright (c) Steve Scherf et al.
# Submitted via: CDex 1.51
#
DISCID=cb09f210
DTITLE=Gwigwi Mrewebi - Mbaqanga Songs
DYEAR=1967
DGENRE=Jazz
TTITLE0=Good News
TTITLE1=Nyusamkhaya
TTITLE2=Lily Express
TTITLE3=Rough Deal
TTITLE4=Kwazakhele
TTITLE5=Mini Mthembo
TTITLE6=Hayini Bo
TTITLE7=Nick Thehe
TTITLE8=Mra
TTITLE9=Kweleetonga
TTITLE10=Botyana
TTITLE11=Ndaqmbayo
TTITLE12=Zangomva
TTITLE13=Zobongo
TTITLE14=Keleketle
TTITLE15=Ezindongeni
EXTD=YEAR: 1967
EXTT0=
EXTT1=
EXTT2=
EXTT3=
EXTT4=
EXTT5=
EXTT6=
EXTT7=
EXTT8=
EXTT9=
EXTT10=
EXTT11=
EXTT12=
EXTT13=
EXTT14=
EXTT15=
PLAYORDER=
